<svg width="321" height="254" viewBox="0 0 214 169" fill="none" xmlns="http://www.w3.org/2000/svg">
  <path d="M21.9241 120.969L24.034 115.142V115.145C24.1396 114.87 23.9061 114.553 23.6115 114.553H11.3887V108.134H26.0382C26.3968 108.134 26.6276 107.984 26.7554 107.648L28.9098 101.716C29.0154 101.44 28.7819 101.124 28.4872 101.124H4.52816C4.21126 101.124 4 101.335 4 101.652V132.263C4 132.58 4.21126 132.791 4.52816 132.791H10.8605C11.1774 132.791 11.3887 132.58 11.3887 132.263V121.475H21.207C21.5655 121.475 21.7963 121.327 21.9241 120.969Z" fill="#1381e0"></path>
  <path d="M105.988 81.0284C105.76 81.2369 105.404 81.2369 105.068 81.0284L105.071 81.0257C80.7864 66.2427 66.1285 39.7178 65.8783 11.8921C65.8783 11.2221 66.109 10.719 66.6733 10.4049C79.5688 3.18017 94.0794 -0.294583 108.651 0.0195343C109.302 0.0389929 109.53 0.606072 109.279 1.12867C107.27 5.29559 105.593 9.5459 104.276 13.7962C104.128 14.2994 103.814 14.5495 103.269 14.5718C95.4804 14.9693 87.9027 16.7289 80.9504 19.6171C81.4508 23.5756 82.3097 27.4478 83.4411 31.1755C88.8617 28.6626 94.5797 27.1337 100.189 26.4638C100.795 26.3804 101.048 26.8001 100.984 27.281C100.273 31.5953 99.7919 35.9707 99.6028 40.3878C99.5611 40.8909 99.2887 41.2245 98.7244 41.3301C95.6055 41.9389 92.5699 42.9007 89.2203 44.4296C92.2336 49.664 95.8779 54.4591 99.8975 58.4787C100.359 58.9596 100.631 59.4628 100.756 60.28C101.802 66.9988 103.622 73.7843 106.052 80.2112C106.197 80.567 106.197 80.8199 105.988 81.0284Z" fill="#1381e0"></path>
  <path d="M67.5601 113.433V132.263H67.5629C67.5629 132.58 67.3516 132.791 67.0347 132.791H60.8274C60.5105 132.791 60.2993 132.58 60.2993 132.263V101.652C60.2993 101.335 60.5105 101.124 60.8274 101.124H68.1939C68.5747 101.124 68.8082 101.251 68.9973 101.588L80.0164 120.335V101.652C80.0164 101.335 80.2276 101.124 80.5445 101.124H86.7518C87.0687 101.124 87.28 101.335 87.28 101.652V132.263C87.28 132.58 87.0687 132.791 86.7518 132.791H79.4688C79.0879 132.791 78.8544 132.663 78.6654 132.327L67.5601 113.433Z" fill="#1381e0"></path>
  <path fill-rule="evenodd" clip-rule="evenodd" d="M34.9447 126.12H47.2286L49.3608 132.285C49.4886 132.621 49.6999 132.791 50.0585 132.791H56.7717C57.0664 132.791 57.2999 132.474 57.1942 132.199L46.0889 101.61C45.9638 101.271 45.7303 101.124 45.3717 101.124H36.885C36.5264 101.124 36.2957 101.274 36.1678 101.61L25.0625 132.199C24.9569 132.474 25.1904 132.791 25.4851 132.791H32.1149C32.4735 132.791 32.707 132.621 32.8126 132.285L34.9447 126.12ZM41.0881 108.282L44.8658 119.217H37.3103L41.0881 108.282Z" fill="#1381e0"></path>
  <path d="M159.808 101.126H181.51V101.124C181.827 101.124 182.038 101.335 182.038 101.652V107.606C182.038 107.923 181.827 108.134 181.51 108.134H166.668V113.369H180.665C180.981 113.369 181.193 113.58 181.193 113.897V119.765C181.193 120.082 180.981 120.293 180.665 120.293H166.668V125.783H181.51C181.827 125.783 182.038 125.994 182.038 126.311V132.266C182.038 132.583 181.827 132.794 181.51 132.794H159.808C159.491 132.794 159.28 132.583 159.28 132.266V101.655C159.28 101.338 159.491 101.126 159.808 101.126Z" fill="#1381e0"></path>
  <path d="M195.609 125.783H210.197C210.514 125.783 210.725 125.994 210.725 126.311V132.266C210.725 132.583 210.514 132.794 210.197 132.794H188.748C188.431 132.794 188.22 132.583 188.22 132.266V101.655C188.22 101.338 188.431 101.126 188.748 101.126H195.081C195.397 101.126 195.609 101.338 195.609 101.655V125.783Z" fill="#1381e0"></path>
  <path d="M152.483 101.126C152.8 101.126 153.011 101.338 153.011 101.655V120.296C153.011 128.063 147.521 133.383 139.543 133.383C131.565 133.383 126.075 128.065 126.075 120.296V101.655C126.075 101.338 126.286 101.126 126.603 101.126H132.935C133.252 101.126 133.464 101.338 133.464 101.655V120.296C133.464 123.885 136.018 126.375 139.543 126.375C143.068 126.375 145.622 123.885 145.622 120.296V101.655C145.622 101.338 145.834 101.126 146.151 101.126H152.483Z" fill="#1381e0"></path>
  <path d="M116.123 0.547696C127.095 1.78471 137.478 5.23722 146.729 10.4132L146.732 10.4076C147.296 10.7218 147.549 11.2249 147.527 11.8948C147.338 38.2334 134.147 63.4406 111.934 78.6823C111.517 78.9742 110.972 78.8074 110.783 78.3265C109.171 73.9928 107.853 69.5951 106.911 65.3448C106.786 64.7805 106.911 64.3413 107.35 64.0049C120.79 53.4111 130.214 37.6052 132.474 19.6199C125.627 16.7928 118.216 15.036 110.344 14.6163C109.863 14.5746 109.527 14.1354 109.674 13.6544C111.203 9.21511 112.96 5.02873 114.95 1.13423C115.181 0.672787 115.578 0.483761 116.123 0.547696Z" fill="#1381e0"></path>
  <path d="M94.0488 101.129H105.301C114.569 101.129 121.513 107.926 121.513 116.963C121.513 126 114.569 132.797 105.301 132.797H94.0488C93.7319 132.797 93.5206 132.585 93.5206 132.268V117.469C93.5206 115.484 94.1544 113.941 95.2719 112.824C96.2865 111.809 97.8682 111.134 99.2832 111.134H100.381C100.698 111.134 100.909 111.345 100.909 111.662V125.786H105.301C110.325 125.786 114.125 121.986 114.125 116.963C114.125 111.94 110.327 108.14 105.301 108.14H94.0488C93.7319 108.14 93.5206 107.929 93.5206 107.612V101.657C93.5206 101.34 93.7319 101.129 94.0488 101.129Z" fill="#1381e0"></path>
</svg>
